<svg xmlns="http://www.w3.org/2000/svg" viewBox="0 0 256 256">
  <defs>
    <linearGradient id="sky" x1="0%" y1="0%" x2="0%" y2="100%">
      <stop offset="0%" stop-color="#1661d8" />
      <stop offset="100%" stop-color="#0c49b7" />
    </linearGradient>
    <filter id="shadow" x="-20%" y="-20%" width="140%" height="140%">
      <feDropShadow dx="0" dy="8" stdDeviation="10" flood-color="#062154" flood-opacity="0.22" />
    </filter>
  </defs>
  <rect width="256" height="256" rx="56" fill="#f5efe0" />
  <g filter="url(#shadow)">
    <rect x="18" y="24" width="220" height="168" rx="24" fill="url(#sky)" stroke="#ffffff" stroke-width="8" />
    <path d="M14 185c23-1 36 3 52 14 12-20 26-27 46-31 18 8 31 18 39 35 15-10 28-14 44-14 20 0 35 5 47 17v26H14z" fill="#0f6b4f" />
    <path d="M23 184c13-19 25-30 41-38l20 39z" fill="#2d9872" />
    <path d="M232 186c-13-19-26-30-44-38l-18 39z" fill="#2d9872" />
    <text x="41" y="64" fill="#ffffff" font-size="26" font-style="italic" font-weight="700" font-family="Trebuchet MS, Arial, sans-serif">Welcome to</text>
    <text x="36" y="125" fill="#f8fbff" font-size="56" font-weight="900" letter-spacing="4" font-family="Avenir Next, Trebuchet MS, Arial, sans-serif">FLORIDA</text>
    <circle cx="128" cy="102" r="17" fill="#ef7f1a" />
    <path d="M124 84c8 4 12 11 11 19-1 9-6 14-13 17-4-4-7-10-6-17 1-8 3-13 8-19z" fill="#d86207" opacity="0.45" />
    <text x="44" y="171" fill="#ffffff" font-size="22" font-style="italic" letter-spacing="2" font-family="Trebuchet MS, Arial, sans-serif">THE SUNSHINE STATE</text>
  </g>
</svg>
